# xmcd CD database file
#
# Track frame offsets:
#	150
#	18935
#	40220
#	60760
#	84265
#	108855
#	128442
#	147747
#	167817
#	184132
#	203340
#	224232
#	242357
#	259650
#
# Disc length: 3796 seconds
#
# Revision: 0
# Processed by: cddbd v1.5.2PL0 Copyright (c) Steve Scherf et al.
# Submitted via: CDex 1.51
#
DISCID=b50ed20e
DTITLE=Grupo Rana - Rana Hits # II
DYEAR=1900
DGENRE=Merengue
TTITLE0=Samba Palenque
TTITLE1=Cuida Mi Amor
TTITLE2=El Mangu
TTITLE3=Solo Otra Vez
TTITLE4=Oyeme Nena
TTITLE5=No Puedo Hacerlo
TTITLE6=Oye Muchacha
TTITLE7=Baila Que Baila
TTITLE8=Quinceañera
TTITLE9=Patacon Pisa'o
TTITLE10=Como Te Extraño My Amor
TTITLE11=Socarengue
TTITLE12=Muevete
TTITLE13=Sentimiento Nacional
EXTD=
EXTT0=
EXTT1=
EXTT2=
EXTT3=
EXTT4=
EXTT5=
EXTT6=
EXTT7=
EXTT8=
EXTT9=
EXTT10=
EXTT11=
EXTT12=
EXTT13=
PLAYORDER=
